<svg width="194" height="29" viewBox="0 0 194 29" xmlns="http://www.w3.org/2000/svg" xmlns:xlink="http://www.w3.org/1999/xlink"><title>adrianmejia-logo</title><defs><path id="c" d="M0 0h29.938v27.712H0z"/><path d="M29.938 21.883v4.377l-2.29 1.339V14.883c0-.334-.083-.683-.248-1.046a3.953 3.953 0 0 0-.743-1.067c-.385-.39-.787-.662-1.208-.815-.419-.154-1.02-.23-1.806-.23H0V8.753l7.485-4.376L14.97 0l7.484 4.377 7.485 4.376V21.883z" id="e"/><path id="f" d="M8.782.005l-.068 27.723-8.689-5.092V5.123z"/><path id="a" d="M21.068-1.027h8.683V28.88h-8.683z"/><mask id="h" x="0" y="0" width="8.683" height="29.907" fill="#fff"><use xlink:href="#a"/></mask><path id="i" d="M8.776.03l-.029 27.71L.04 22.67.026 5.167z"/><path id="b" d="M21.037-.996h8.589V28.88h-8.589z"/><mask id="k" x="0" y="0" width="8.589" height="29.876" fill="#fff"><use xlink:href="#b"/></mask></defs><g fill="none" fill-rule="evenodd"><g font-size="25" font-family="Orbitron-Regular, Orbitron"><text fill="#0E557E" transform="translate(36 -2)"><tspan x="0" y="24">Adrian</tspan></text><text fill="#7E8183" transform="translate(36 -2)"><tspan x="91" y="24">Mejia</tspan></text></g><g transform="translate(.031 .031)"><mask id="d" fill="#fff"><use xlink:href="#c"/></mask><g mask="url(#d)"><g transform="translate(0 -3.634)"><path d="M24.639 29.344l-2.22 1.3-7.472 4.375-7.473-4.376L0 26.267V14.16h9.984c.384 0 .69.038.917.115.227.076.422.205.587.386.165.181.275.353.33.513.052.155.08.327.082.514v.604H6.767c-.686 0-1.291.202-1.814.606-.645.516-1.03 1.234-1.154 2.153 0 .056-.014.147-.04.272v.25c0 .642.15 1.206.452 1.694.303.488.736.871 1.299 1.15.454.209.942.313 1.464.313H14.87V14.16h3.379v8.571h2.968v-8.57h2.041c.481 0 .875.248 1.176.752.139.234.205.537.205.898v13.534zM11.9 18.362H8.15c-.344 0-.643.107-.897.323-.255.217-.381.464-.381.743 0 .265.11.474.33.628l.267.145c.234.084.427.126.577.126h3.856v-1.965z" fill="#7E8183"/><use fill="#0E557E" xlink:href="#e"/></g></g></g><g transform="translate(0 .031)"><mask id="g" fill="#fff"><use xlink:href="#f"/></mask><use fill-opacity=".15" fill="#FFF" xlink:href="#f"/><g mask="url(#g)" stroke-width="2" stroke="#979797" fill="#D8D8D8"><use mask="url(#h)" xlink:href="#a"/></g></g><g transform="matrix(-1 0 0 1 30 0)"><mask id="j" fill="#fff"><use xlink:href="#i"/></mask><use fill-opacity=".087" fill="#000" xlink:href="#i"/><g mask="url(#j)" stroke-width="2" stroke="#979797" fill="#D8D8D8"><use mask="url(#k)" xlink:href="#b"/></g></g></g></svg>