<svg width="198" height="31" viewBox="0 0 198 31" xmlns="http://www.w3.org/2000/svg" xmlns:xlink="http://www.w3.org/1999/xlink"><title>adrianmejia-logo</title><defs><path d="M26 19.372v3.874l-1.988 1.185V13.175c0-.296-.072-.605-.216-.926a3.501 3.501 0 0 0-.645-.944c-.335-.345-.684-.586-1.05-.722-.363-.136-.886-.203-1.567-.203H0V7.748l6.5-3.874L13 0l6.5 3.874L26 7.75v11.623z" id="a"/><path id="b" d="M0 0h34v34H0z"/></defs><g fill="none" fill-rule="evenodd"><g font-size="25" font-family="Orbitron-Medium, Orbitron" font-weight="400"><text fill="#0E557E" transform="translate(36)"><tspan x="0" y="24">Adrian</tspan></text><text fill="#7E8183" transform="translate(36)"><tspan x="94" y="24">Mejia</tspan></text></g><g transform="translate(-4 -2)"><g transform="translate(4 2)"><path d="M21.398 25.976l-1.927 1.15L12.981 31l-6.49-3.874L0 23.252V12.535h8.67c.334 0 .6.033.797.102.197.067.367.181.51.342.143.16.239.311.286.453.046.138.07.29.072.455v.535H5.877c-.596 0-1.121.18-1.575.537-.56.457-.895 1.092-1.002 1.906 0 .049-.012.13-.036.24v.222c0 .568.131 1.067.393 1.5.263.432.64.77 1.128 1.018.394.184.818.277 1.271.277h6.857v-7.588h2.935v7.587h2.578v-7.587H20.2c.418 0 .76.22 1.02.666.122.208.18.476.18.796v11.98zm-11.063-9.722H7.077c-.298 0-.558.096-.779.287-.221.191-.331.41-.331.657 0 .235.095.42.286.556l.233.128c.203.075.37.112.501.112h3.348v-1.74z" fill="#7E8183"/><use fill="#0E557E" xlink:href="#a"/></g><use xlink:href="#b"/></g></g></svg>