<svg width="150" height="139" viewBox="0 0 150 139" xmlns="http://www.w3.org/2000/svg" xmlns:xlink="http://www.w3.org/1999/xlink"><title>adrianmejia-icon-logo</title><defs><path id="c" d="M0 0h149.689v138.562H0z"/><path d="M149.689 109.417V131.3l-11.448 6.694V74.415c0-1.672-.414-3.416-1.239-5.232-.825-1.81-2.066-3.587-3.717-5.33-1.925-1.95-3.937-3.311-6.04-4.077-2.093-.769-5.105-1.15-9.028-1.15H0v-14.86l37.425-21.883L74.845 0l37.42 21.883 37.424 21.883V109.417z" id="e"/><path id="f" d="M43.91.024l-.342 138.617L.127 113.18V25.616z"/><path id="a" d="M105.342-5.135h43.413v149.533h-43.413z"/><mask id="h" x="0" y="0" width="43.413" height="149.533" fill="#fff"><use xlink:href="#a"/></mask><path id="i" d="M43.88.146l-.143 138.55L.199 113.35.132 25.833z"/><path id="b" d="M105.187-4.979h42.946v149.378h-42.946z"/><mask id="k" x="0" y="0" width="42.946" height="149.378" fill="#fff"><use xlink:href="#b"/></mask></defs><g fill="none" fill-rule="evenodd"><g transform="translate(.156 .156)"><mask id="d" fill="#fff"><use xlink:href="#c"/></mask><g mask="url(#d)"><g transform="translate(0 -18.172)"><path d="M123.195 146.718l-11.095 6.498-37.365 21.88-37.365-21.88L0 131.336V70.8h49.919c1.922 0 3.449.188 4.584.575a6.872 6.872 0 0 1 2.936 1.931c.825.904 1.376 1.762 1.647 2.564.266.777.407 1.633.416 2.57v3.019H33.836c-3.433 0-6.456 1.012-9.07 3.032-3.225 2.58-5.152 6.167-5.769 10.765 0 .278-.07.732-.206 1.357v1.257c0 3.203.757 6.027 2.265 8.466 1.512 2.441 3.679 4.356 6.494 5.752 2.27 1.04 4.708 1.564 7.318 1.564H74.345V70.796h16.898v42.854h14.843V70.796h10.205c2.405 0 4.376 1.246 5.877 3.764.695 1.171 1.027 2.684 1.027 4.49v67.668zM59.502 91.809H40.744c-1.718 0-3.214.538-4.485 1.617-1.272 1.083-1.905 2.319-1.905 3.713 0 1.324.547 2.37 1.649 3.139l1.337.726c1.169.42 2.134.63 2.887.63h19.276v-9.825h-.001z" fill="#7E8183"/><use fill="#0E557E" xlink:href="#e"/></g></g></g><g transform="translate(0 .156)"><mask id="g" fill="#fff"><use xlink:href="#f"/></mask><use fill-opacity=".15" fill="#FFF" xlink:href="#f"/><g mask="url(#g)" stroke-width="2" stroke="#979797" fill="#D8D8D8"><use mask="url(#h)" xlink:href="#a"/></g></g><g transform="matrix(-1 0 0 1 150 0)"><mask id="j" fill="#fff"><use xlink:href="#i"/></mask><use fill-opacity=".087" fill="#000" xlink:href="#i"/><g mask="url(#j)" stroke-width="2" stroke="#979797" fill="#D8D8D8"><use mask="url(#k)" xlink:href="#b"/></g></g></g></svg>