<svg width="964" height="891" viewBox="0 0 964 891" xmlns="http://www.w3.org/2000/svg" xmlns:xlink="http://www.w3.org/1999/xlink"><title>adrianmejia-icon-logo-large</title><defs><path id="c" d="M0 0h962v890.494H0z"/><path d="M962 703.189v140.633l-73.571 43.022V478.241c0-10.747-2.662-21.955-7.96-33.624-5.306-11.639-13.278-23.05-23.888-34.259-12.372-12.532-25.306-21.277-38.82-26.196-13.449-4.942-32.806-7.392-58.017-7.392H0v-95.504l240.52-140.63L481 0l240.485 140.636L962 281.272v421.917z" id="e"/><path id="f" d="M282.192.154L280 891 .814 727.37V164.624z"/><path id="a" d="M677-33h279v961H677z"/><mask id="h" x="0" y="0" width="279" height="961" fill="#fff"><use xlink:href="#a"/></mask><path id="i" d="M282 .94l-.917 890.416L1.28 728.456.846 166.02z"/><path id="b" d="M676-32h276v960H676z"/><mask id="k" x="0" y="0" width="276" height="960" fill="#fff"><use xlink:href="#b"/></mask></defs><g fill="none" fill-rule="evenodd"><g transform="translate(1)"><mask id="d" fill="#fff"><use xlink:href="#c"/></mask><g mask="url(#d)"><g transform="translate(0 -116.786)"><path d="M791.735 942.907l-71.308 41.764-240.13 140.612L240.165 984.67 0 844.047V455.009h320.81c12.354 0 22.169 1.21 29.462 3.696 7.293 2.455 13.57 6.582 18.867 12.41 5.304 5.81 8.847 11.32 10.589 16.476 1.707 4.995 2.616 10.493 2.67 16.513v19.405H217.453c-22.063 0-41.491 6.505-58.286 19.49-20.734 16.578-33.118 39.631-37.08 69.182 0 1.785-.449 4.702-1.323 8.72v8.075c0 20.585 4.866 38.733 14.557 54.413 9.714 15.686 23.64 27.994 41.733 36.96 14.586 6.69 30.26 10.056 47.03 10.056H477.794V454.98h108.594v275.414h95.39V454.98h65.584c15.46 0 28.128 8.014 37.771 24.191 4.47 7.529 6.603 17.25 6.603 28.863v434.874zm-409.338-352.88H261.851c-11.044 0-20.657 3.456-28.825 10.391-8.179 6.96-12.247 14.902-12.247 23.862 0 8.51 3.52 15.23 10.6 20.172l8.592 4.666c7.512 2.7 13.712 4.049 18.555 4.049h123.877v-63.14h-.006z" fill="#7E8183"/><use fill="#0E557E" xlink:href="#e"/></g></g></g><g><mask id="g" fill="#fff"><use xlink:href="#f"/></mask><use fill-opacity=".15" fill="#FFF" xlink:href="#f"/><g mask="url(#g)" stroke-width="2" stroke="#979797" fill="#D8D8D8"><use mask="url(#h)" xlink:href="#a"/></g></g><g transform="matrix(-1 0 0 1 964 -1)"><mask id="j" fill="#fff"><use xlink:href="#i"/></mask><use fill-opacity=".087" fill="#000" xlink:href="#i"/><g mask="url(#j)" stroke-width="2" stroke="#979797" fill="#D8D8D8"><use mask="url(#k)" xlink:href="#b"/></g></g></g></svg>