<svg width="28" height="33" viewBox="0 0 28 33" xmlns="http://www.w3.org/2000/svg" xmlns:xlink="http://www.w3.org/1999/xlink"><title>logo-adrianmejia</title><defs><path d="M27.036 19.757v3.951l-2.068 1.209v-11.48c0-.302-.074-.617-.223-.945a3.569 3.569 0 0 0-.672-.962c-.347-.353-.71-.598-1.09-.736-.379-.14-.923-.208-1.631-.208H0V7.903L6.76 3.95 13.518 0l6.759 3.951 6.76 3.952v11.854z" id="a"/><path id="b" d="M0 0h35v35H0z"/></defs><g transform="translate(-3 -1)" fill="none" fill-rule="evenodd"><g transform="translate(3.965 1.675)"><path d="M22.251 26.492l-2.004 1.174-6.749 3.95-6.748-3.95L0 23.715V12.784h9.016c.347 0 .623.034.828.104.205.069.381.185.53.349.15.163.249.318.298.462.048.14.073.295.075.464v.546H6.11c-.62 0-1.166.182-1.638.547-.582.466-.93 1.114-1.042 1.944 0 .05-.012.132-.037.245v.227c0 .578.137 1.088.41 1.529.272.44.663.786 1.172 1.038.41.188.85.283 1.322.283h7.129v-7.739h3.053v7.738h2.68v-7.738h1.844c.434 0 .79.225 1.061.68.126.211.186.485.186.81v12.22zm-11.504-9.914H7.359c-.31 0-.58.097-.81.291-.23.196-.344.42-.344.67 0 .24.099.429.298.568l.241.13c.211.077.386.115.522.115h3.481v-1.774z" fill="#7E8183"/><use fill="#0E557E" xlink:href="#a"/></g><use xlink:href="#b"/></g></svg>