<?xml version="1.0" encoding="UTF-8" standalone="no"?><!DOCTYPE svg PUBLIC "-//W3C//DTD SVG 1.1//EN" "http://www.w3.org/Graphics/SVG/1.1/DTD/svg11.dtd"><!-- Generated by graphviz version 2.40.1 (20161225.0304)
 --><!-- Title: G Pages: 1 --><svg xmlns="http://www.w3.org/2000/svg" xmlns:xlink="http://www.w3.org/1999/xlink" width="778pt" height="753pt" viewBox="0.00 0.00 777.62 752.92">
<g id="graph0" class="graph" transform="scale(1 1) rotate(0) translate(4 748.9158)">
<title>G</title>
<polygon fill="#ffffff" stroke="transparent" points="-4,4 -4,-748.9158 773.6185,-748.9158 773.6185,4 -4,4"/>
<!-- 0000 -->
<g id="node1" class="node">
<title>0000</title>
<ellipse fill="none" stroke="#000000" cx="310.8875" cy="-298.5407" rx="30.2015" ry="18"/>
<text text-anchor="middle" x="310.8875" y="-294.3407" font-family="Times,serif" font-size="14.00" fill="#000000">0000</text>
</g>
<!-- 0001 -->
<g id="node2" class="node">
<title>0001</title>
<ellipse fill="none" stroke="#000000" cx="591.4282" cy="-298.5407" rx="30.2015" ry="18"/>
<text text-anchor="middle" x="591.4282" y="-294.3407" font-family="Times,serif" font-size="14.00" fill="#000000">0001</text>
</g>
<!-- 0000&#45;&#45;0001 -->
<g id="edge1" class="edge">
<title>0000--0001</title>
<path fill="none" stroke="#000000" d="M341.4443,-298.5407C395.4088,-298.5407 506.9714,-298.5407 560.9091,-298.5407"/>
</g>
<!-- 0009 -->
<g id="node3" class="node">
<title>0009</title>
<ellipse fill="none" stroke="#000000" cx="309.4638" cy="-579.0778" rx="30.2015" ry="18"/>
<text text-anchor="middle" x="309.4638" y="-574.8778" font-family="Times,serif" font-size="14.00" fill="#000000">0009</text>
</g>
<!-- 0000&#45;&#45;0009 -->
<g id="edge2" class="edge">
<title>0000--0009</title>
<path fill="none" stroke="#000000" d="M310.7941,-316.9475C310.5355,-367.9011 309.8125,-510.3719 309.5557,-560.9679"/>
</g>
<!-- 0010 -->
<g id="node4" class="node">
<title>0010</title>
<ellipse fill="none" stroke="#000000" cx="66.9885" cy="-437.1639" rx="30.2015" ry="18"/>
<text text-anchor="middle" x="66.9885" y="-432.9639" font-family="Times,serif" font-size="14.00" fill="#000000">0010</text>
</g>
<!-- 0000&#45;&#45;0010 -->
<g id="edge3" class="edge">
<title>0000--0010</title>
<path fill="none" stroke="#000000" d="M288.8129,-311.0871C242.4946,-337.4127 135.6168,-398.1581 89.189,-424.546"/>
</g>
<!-- 0090 -->
<g id="node5" class="node">
<title>0090</title>
<ellipse fill="none" stroke="#000000" cx="30.3504" cy="-297.117" rx="30.2015" ry="18"/>
<text text-anchor="middle" x="30.3504" y="-292.917" font-family="Times,serif" font-size="14.00" fill="#000000">0090</text>
</g>
<!-- 0000&#45;&#45;0090 -->
<g id="edge4" class="edge">
<title>0000--0090</title>
<path fill="none" stroke="#000000" d="M280.3311,-298.3856C226.3673,-298.1118 114.8061,-297.5456 60.8691,-297.2719"/>
</g>
<!-- 0100 -->
<g id="node6" class="node">
<title>0100</title>
<ellipse fill="none" stroke="#000000" cx="68.4081" cy="-157.4492" rx="30.2015" ry="18"/>
<text text-anchor="middle" x="68.4081" y="-153.2492" font-family="Times,serif" font-size="14.00" fill="#000000">0100</text>
</g>
<!-- 0000&#45;&#45;0100 -->
<g id="edge5" class="edge">
<title>0000--0100</title>
<path fill="none" stroke="#000000" d="M288.9414,-285.7709C242.7761,-258.9087 136.0985,-196.8362 90.1299,-170.0884"/>
</g>
<!-- 0900 -->
<g id="node7" class="node">
<title>0900</title>
<ellipse fill="none" stroke="#000000" cx="171.0283" cy="-55.3484" rx="30.2015" ry="18"/>
<text text-anchor="middle" x="171.0283" y="-51.1484" font-family="Times,serif" font-size="14.00" fill="#000000">0900</text>
</g>
<!-- 0000&#45;&#45;0900 -->
<g id="edge6" class="edge">
<title>0000--0900</title>
<path fill="none" stroke="#000000" d="M301.0529,-281.4399C275.3735,-236.7877 206.5192,-117.0613 180.8521,-72.4303"/>
</g>
<!-- 1000 -->
<g id="node8" class="node">
<title>1000</title>
<ellipse fill="none" stroke="#000000" cx="310.8875" cy="-18" rx="30.2015" ry="18"/>
<text text-anchor="middle" x="310.8875" y="-13.8" font-family="Times,serif" font-size="14.00" fill="#000000">1000</text>
</g>
<!-- 0000&#45;&#45;1000 -->
<g id="edge7" class="edge">
<title>0000--1000</title>
<path fill="none" stroke="#000000" d="M310.8875,-280.1336C310.8875,-229.1795 310.8875,-86.7068 310.8875,-36.1101"/>
</g>
<!-- 9000 -->
<g id="node9" class="node">
<title>9000</title>
<ellipse fill="none" stroke="#000000" cx="450.7467" cy="-55.3484" rx="30.2015" ry="18"/>
<text text-anchor="middle" x="450.7467" y="-51.1484" font-family="Times,serif" font-size="14.00" fill="#000000">9000</text>
</g>
<!-- 0000&#45;&#45;9000 -->
<g id="edge8" class="edge">
<title>0000--9000</title>
<path fill="none" stroke="#000000" d="M320.7221,-281.4399C346.4015,-236.7877 415.2557,-117.0613 440.9229,-72.4303"/>
</g>
<!-- 0002 -->
<g id="node10" class="node">
<title>0002</title>
<ellipse fill="none" stroke="#000000" cx="458.229" cy="-234.3954" rx="30.2015" ry="18"/>
<text text-anchor="middle" x="458.229" y="-230.1954" font-family="Times,serif" font-size="14.00" fill="#000000">0002</text>
</g>
<!-- 0001&#45;&#45;0002 -->
<g id="edge9" class="edge">
<title>0001--0002</title>
<path fill="none" stroke="#c0c0c0" d="M567.6149,-287.0728C543.37,-275.3971 506.0063,-257.4037 481.8362,-245.764"/>
</g>
<!-- 0011 -->
<g id="node11" class="node">
<title>0011</title>
<ellipse fill="none" stroke="#000000" cx="558.5307" cy="-154.4074" rx="30.2015" ry="18"/>
<text text-anchor="middle" x="558.5307" y="-150.2074" font-family="Times,serif" font-size="14.00" fill="#000000">0011</text>
</g>
<!-- 0001&#45;&#45;0011 -->
<g id="edge10" class="edge">
<title>0001--0011</title>
<path fill="none" stroke="#c0c0c0" d="M587.3282,-280.5776C581.0242,-252.9578 569.0174,-200.3525 562.6824,-172.597"/>
</g>
<!-- 0091 -->
<g id="node12" class="node">
<title>0091</title>
<ellipse fill="none" stroke="#000000" cx="683.6049" cy="-182.9548" rx="30.2015" ry="18"/>
<text text-anchor="middle" x="683.6049" y="-178.7548" font-family="Times,serif" font-size="14.00" fill="#000000">0091</text>
</g>
<!-- 0001&#45;&#45;0091 -->
<g id="edge11" class="edge">
<title>0001--0091</title>
<path fill="none" stroke="#c0c0c0" d="M604.6349,-281.9801C622.1576,-260.0072 652.9123,-221.4421 670.4227,-199.4847"/>
</g>
<!-- 0101 -->
<g id="node13" class="node">
<title>0101</title>
<ellipse fill="none" stroke="#000000" cx="739.2681" cy="-298.5407" rx="30.2015" ry="18"/>
<text text-anchor="middle" x="739.2681" y="-294.3407" font-family="Times,serif" font-size="14.00" fill="#000000">0101</text>
</g>
<!-- 0001&#45;&#45;0101 -->
<g id="edge12" class="edge">
<title>0001--0101</title>
<path fill="none" stroke="#c0c0c0" d="M622.0607,-298.5407C647.4337,-298.5407 683.3127,-298.5407 708.6748,-298.5407"/>
</g>
<!-- 0901 -->
<g id="node14" class="node">
<title>0901</title>
<ellipse fill="none" stroke="#000000" cx="683.6049" cy="-414.1266" rx="30.2015" ry="18"/>
<text text-anchor="middle" x="683.6049" y="-409.9266" font-family="Times,serif" font-size="14.00" fill="#000000">0901</text>
</g>
<!-- 0001&#45;&#45;0901 -->
<g id="edge13" class="edge">
<title>0001--0901</title>
<path fill="none" stroke="#c0c0c0" d="M604.6349,-315.1013C622.1576,-337.0742 652.9123,-375.6393 670.4227,-397.5967"/>
</g>
<!-- 1001 -->
<g id="node15" class="node">
<title>1001</title>
<ellipse fill="none" stroke="#000000" cx="558.5307" cy="-442.674" rx="30.2015" ry="18"/>
<text text-anchor="middle" x="558.5307" y="-438.474" font-family="Times,serif" font-size="14.00" fill="#000000">1001</text>
</g>
<!-- 0001&#45;&#45;1001 -->
<g id="edge14" class="edge">
<title>0001--1001</title>
<path fill="none" stroke="#c0c0c0" d="M587.3282,-316.5039C581.0242,-344.1236 569.0174,-396.7289 562.6824,-424.4844"/>
</g>
<!-- 9001 -->
<g id="node16" class="node">
<title>9001</title>
<ellipse fill="none" stroke="#000000" cx="458.229" cy="-362.686" rx="30.2015" ry="18"/>
<text text-anchor="middle" x="458.229" y="-358.486" font-family="Times,serif" font-size="14.00" fill="#000000">9001</text>
</g>
<!-- 0001&#45;&#45;9001 -->
<g id="edge15" class="edge">
<title>0001--9001</title>
<path fill="none" stroke="#c0c0c0" d="M567.6149,-310.0086C543.37,-321.6843 506.0063,-339.6777 481.8362,-351.3174"/>
</g>
<!-- 0008 -->
<g id="node17" class="node">
<title>0008</title>
<ellipse fill="none" stroke="#000000" cx="374.2843" cy="-446.2059" rx="30.2015" ry="18"/>
<text text-anchor="middle" x="374.2843" y="-442.0059" font-family="Times,serif" font-size="14.00" fill="#000000">0008</text>
</g>
<!-- 0009&#45;&#45;0008 -->
<g id="edge16" class="edge">
<title>0009--0008</title>
<path fill="none" stroke="#c0c0c0" d="M317.9379,-561.7071C330.3607,-536.2423 353.3841,-489.0481 365.808,-463.5808"/>
</g>
<!-- 0019 -->
<g id="node18" class="node">
<title>0019</title>
<ellipse fill="none" stroke="#000000" cx="453.7621" cy="-546.9122" rx="30.2015" ry="18"/>
<text text-anchor="middle" x="453.7621" y="-542.7122" font-family="Times,serif" font-size="14.00" fill="#000000">0019</text>
</g>
<!-- 0009&#45;&#45;0019 -->
<g id="edge17" class="edge">
<title>0009--0019</title>
<path fill="none" stroke="#c0c0c0" d="M337.9725,-572.7229C363.27,-567.0838 400.0331,-558.889 425.3126,-553.2539"/>
</g>
<!-- 0099 -->
<g id="node19" class="node">
<title>0099</title>
<ellipse fill="none" stroke="#000000" cx="424.5804" cy="-671.8399" rx="30.2015" ry="18"/>
<text text-anchor="middle" x="424.5804" y="-667.6399" font-family="Times,serif" font-size="14.00" fill="#000000">0099</text>
</g>
<!-- 0009&#45;&#45;0099 -->
<g id="edge18" class="edge">
<title>0009--0099</title>
<path fill="none" stroke="#c0c0c0" d="M327.7044,-593.7762C349.2597,-611.1457 384.9071,-639.8708 406.4252,-657.2102"/>
</g>
<!-- 0109 -->
<g id="node20" class="node">
<title>0109</title>
<ellipse fill="none" stroke="#000000" cx="308.7135" cy="-726.9158" rx="30.2015" ry="18"/>
<text text-anchor="middle" x="308.7135" y="-722.7158" font-family="Times,serif" font-size="14.00" fill="#000000">0109</text>
</g>
<!-- 0009&#45;&#45;0109 -->
<g id="edge19" class="edge">
<title>0009--0109</title>
<path fill="none" stroke="#c0c0c0" d="M309.3718,-597.2056C309.2278,-625.5797 308.9507,-680.1745 308.8063,-708.6397"/>
</g>
<!-- 0909 -->
<g id="node21" class="node">
<title>0909</title>
<ellipse fill="none" stroke="#000000" cx="193.4116" cy="-670.6667" rx="30.2015" ry="18"/>
<text text-anchor="middle" x="193.4116" y="-666.4667" font-family="Times,serif" font-size="14.00" fill="#000000">0909</text>
</g>
<!-- 0009&#45;&#45;0909 -->
<g id="edge20" class="edge">
<title>0009--0909</title>
<path fill="none" stroke="#c0c0c0" d="M291.075,-593.5903C269.3445,-610.7401 233.4073,-639.1019 211.7144,-656.2221"/>
</g>
<!-- 1009 -->
<g id="node22" class="node">
<title>1009</title>
<ellipse fill="none" stroke="#000000" cx="165.4993" cy="-545.4493" rx="30.2015" ry="18"/>
<text text-anchor="middle" x="165.4993" y="-541.2493" font-family="Times,serif" font-size="14.00" fill="#000000">1009</text>
</g>
<!-- 0009&#45;&#45;1009 -->
<g id="edge21" class="edge">
<title>0009--1009</title>
<path fill="none" stroke="#c0c0c0" d="M281.021,-572.4339C255.7821,-566.5384 219.1041,-557.9708 193.883,-552.0794"/>
</g>
<!-- 9009 -->
<g id="node23" class="node">
<title>9009</title>
<ellipse fill="none" stroke="#000000" cx="245.9952" cy="-445.5548" rx="30.2015" ry="18"/>
<text text-anchor="middle" x="245.9952" y="-441.3548" font-family="Times,serif" font-size="14.00" fill="#000000">9009</text>
</g>
<!-- 0009&#45;&#45;9009 -->
<g id="edge22" class="edge">
<title>0009--9009</title>
<path fill="none" stroke="#c0c0c0" d="M301.1664,-561.622C289.0027,-536.0324 266.4595,-488.6069 254.2947,-463.0149"/>
</g>
</g>
</svg>