<svg xmlns="http://www.w3.org/2000/svg" width="900" height="676"><path d="M448 646L31 160 172 24h552l141 136z" fill="#c80000" stroke="#000" stroke-width="18"/><g fill="#ffeb00" stroke="#000" stroke-width="16"><path d="M206.95 298.431L278.5 383c39.279-36.18 131.56-27.86 160.25 21.5 79.642 1.258 146.99 5.247 173.249-26.589 7.435-10.468 9.66-21.992-.295-29.753-47.004-32.067-215.512-15.164-404.755-49.727zM93 163.75c-1 .25 99.28-96.5 99.28-96.5h48.47c-49.45 39.559-84.132 94.132-99.343 153.714zM348.858 461.593L448 577.005l94.923-110.5c-48.19 11.317-101.74 16.91-194.065-4.912z" stroke-miterlimit="4.7"/><path d="M593.75 67.25h42c.924 15.344-6.486 25.218-11.129 30.086C614.854 83.514 599.42 70.5 593.75 67.25z" stroke-miterlimit="9.6"/><path d="M709.256 275.885L803 163.75l-67.962-67.224v75.66H594.677c-3.222-73.173-77.332-104.613-163.593-103.642-79.243.891-145.398 20.85-151.584 64.956-6.041 24.915 21.402 66.906 187.5 58.5 132.2-2.923 213.238 26.099 242.256 83.885z"/></g></svg>